<mxfile host="app.diagrams.net" modified="2024-05-13T19:37:15.778Z" agent="Mozilla/5.0 (Windows NT 10.0; Win64; x64) AppleWebKit/537.36 (KHTML, like Gecko) Chrome/124.0.0.0 Safari/537.36" etag="RKACfHWL-iRc2mP9SeW8" version="24.4.0" type="device">
  <diagram name="Page-1" id="tFRXGgwXbvtMoPkH7NHy">
    <mxGraphModel dx="1728" dy="650" grid="1" gridSize="10" guides="1" tooltips="1" connect="1" arrows="1" fold="1" page="1" pageScale="1" pageWidth="827" pageHeight="1169" background="#FFFFFF" math="0" shadow="0">
      <root>
        <mxCell id="0" />
        <mxCell id="1" parent="0" />
        <mxCell id="_0HD5gHIsMBidYTkMZf6-1" value="" style="shape=image;verticalLabelPosition=bottom;labelBackgroundColor=default;verticalAlign=top;aspect=fixed;imageAspect=0;image=data:image/png,iVBORw0KGgoAAAANSUhEUgAAAGwAAAA+CAYAAADOIP4xAAAAAXNSR0IArs4c6QAAAARnQU1BAACxjwv8YQUAAAAJcEhZcwAADsMAAA7DAcdvqGQAAAj2SURBVHhe7ZzJaxbNFsbL6VOjOOCAQoJREUVQo/4BImqccACJulEUyUbFYSEojlFQxHHjRkQRFwE3QhbGWRBxWrhR0I0gOIBTHHCIY9/6nZvnvWV/8d5r3n4nv37gUNXVVfWeU0+dU9Wd6rSLPFyKkkH7ljRFiSAlrMSQElZiSAkrMaSbjoTAMLZr187S/wXqtRUpYVlCRMXzQEObDUFxpIS1EXGiANfK//jxw/IdOnSw6xDZEJiuYW1ESJaIElnfvn2zso4dO1o+SWRNmJSUwn+ayDalvxKR9uXLF9epUydLt2zZ4m7cuGH38DjVyQZZEyYlSP9ECclorVz579+/W75z587u+vXrbs6cOW7Hjh3u3bt3dl9CnWyQiIdJaQmzqZQltEW2xW0E1IUoROFv586dbubMme7cuXO2fv3111/WVpItElnDZAAgL0PigxBeF4No8OPl6C6b4qnA4MurCIGEvkmTJrmNGze6169fW5nIBPH2bYbvKCt4AzPilbO0NfjZ15IrHqAvIkj30KbWhDZ+jbK6b968ierq6qKysjIYibxXRZ5EyyNnzpyxerKf9tkg6229V8C1b9/eUmbbhw8f3IoVK9zjx49tlqn7z58/2zV1KUsiPLQF0gc92BgAwhb6E8LQc/r06W7dunXmHZRxT1AZ7a9cueLWr19vaxYId4XYx295wtzUqVMz7bK23XeQFZgxiGbQq1evor59+2ZmWCnK/PnzzaavX7/+ZF9zc7PZ6DcS0YYNG6Lu3btbfU9U5En/Wz9I0h6WyBrGjNGMIu3Vq5fNJmYcaakInkbarVu3jE3AE2cexQ7w8uXLbsqUKW7Xrl3u/fv3ZqMnwbx12LBhrqKiwtqobdJIhDBBpBEWCAGlLNgBEeQh0q9VFv4Ibzdv3jQCIRdbqbdo0SLbGY4ZM8bGgvu5QKK9ysNyNbtyDfQH6A8JEIIHsQ5NnDjR7d6927yNtVhkVlZWuhMnTrjjx49bnjVcfeQCWW86RBIGkL58+dJVVVW5p0+f2rW6Z8b16NHDUtVV23xBv0cKGWwwCGuCdKupqXEnT540W3iuOnTokIU8yKO9SFuwYIHbs2ePGzBggN2nzxkzZmSewSA06U1H4oT5TYcbN26ce/ToUUYx6hDfjx075nr27GkGJ6H870K/Rxjr2rWr7e6WLVvWcvc/IZ3wtnTpUrdq1Sp39+5du4e+gIEfPny427Ztm1u4cKGVYQ9tIbS6utqdP3/e8vxOUe4SgVfI8k1NTdGQIUNsh+QVi/ystbyP7ZF/oLS6hYZ0vnr1qukoQU+kvLw88hsPy/tBztiA1NbWRg8fPrT23kNt94ftnjQr8xsSq+cJs7Qod4kCM8f3ad4mcA2YbR8/frSZRijimplJmm/h99Hx06dPmRkvPQHPkKxFeltB3aFDh7qGhgZ3+PBhN2jQIAuBeq4E9BGmuULONx3KYxghASFcFELC35Y+6Ce9Be6xM2RCdenSxS1fvtzC56xZszKk04dIDtvmGol72K+AccUk0gmINAGPwoPYPNXX19umo1+/fkagiA49K2ybayRK2H8DhhWTSCchzOM9a9ascY2NjW7u3LlGHqGRcuqJdOXDtrlG3ggrdoQDP3v2bHfgwIHMdj1cqwD1VDefZIGUsAAafB49IFBkxZFvkkKkhLUCwh9grQKQB+RZui4EUsIChJ4jYkSSrlVWKKSEBQg9SanKQvIKiZSwAK2REZJXDEgJKzGkhAUIw5/QWlkhkRIWIB7+tG4pLQakhAWQF/FqKk4WqQQozTdSwloBZzcgiZe8gogLSSwEUsJawYMHD+wtB8TxwpcH6dDLlC8EUsJaAAn6Ox4noyZMmGDnDvkzC+8R5W0iTfl8oyCEyehCShxhGQRx9Hry5Mlu69at7u3bt/ZOMQyRIPS6fCEnhP1qQPJp2P+DX+mEp/GnFAjavn27EXfx4kUjDZIoD9tRli8kRpgMiA9AeI2hrAnFIhAjL4kPOrpCEMTdvn3b/uTC8W3OJ8rb9JKY9nG7c4XECJPBpKHxymN4//79zVhOLLE2sKiT5kv0e2VlZaZH7969M2SFAz527Fg3YsQI23jI2ziPsnfvXvtC5cKFC9YPb/MhDsjOXBOX2DE3ZhsGPH/+3I65PXny5KeBGDhwoFu7dq2dTaQu64Ta5guhrhB27949d/DgwZa7/167IGjJkiX2Md6mTZvsgCjANtpzn/zKlSvd5s2bXZ8+fYxY+oXYadOm2blEhdSiPebmlbP0xYsXUUVFBSz9dHSsFMQTZmlNTY3ZAurr66PBgwdn6niiM3aNGjUqamhoaKkZ2VE3HXPz5FhatMfcNGuYRcyu1sAM5r7SQkmoRwjZwMcQeASew2FRTkzhdXglax/2IXfu3HHz5s1zq1evds+ePbMy9aE0cbQQ12aEHkaez40qKyszM7KURB62ePFiswmP8aRZHuBtI0eOtDp4mSco09avedGlS5ei6upqu/YTwtKi9DDfj80oiWYus1jXxS7oib6Aa2wCeE3obWfPnnW1tbV2nzWKutS5f/++fQh469Yta+eJsTRpZE2YyCJFUJQdFcBQlRW7oCfhDnAiGJsESCEcQlp5ebmd/j19+rSdBqYtxHGfE8Vs+wH95QKJ7BKVYmRzc7M7cuSIa2pqspmn+5DItjosKyQgAWIAp3vRSWXjx4+3f9sgm4DymoQQxI64rq7OHT161OzGPkhVXdKi3CVKvFJZx+higWwJbQPKs74Jp06diqqqqpiFf/uwIuk1LLHnsLAbZlOW3RYUeBoC4rbJXuAH3wRv43u4/fv3u3379tk9rX2ETp7NyBeFh4FsZ00xI24b13HRx+qgsbExGj16tHkX4h+irU7R7BJ9H5lZ+CdKaBtozTt4TcXGg00L3nTt2jV7NmNNY22L95ENsg6J/zQwXCJNee81GVIIfYRI4Nc2++6Zr2CoQ0gkVbhtC1LC2gANmUiKA1IgDs/TtUgGYf53kRKWBRg6DX58GLnWRiNOUEpYgSHilIaI32utzu8gJSwh/M4wpoT9g5D1tj5FfpESVlJw7l8IQ2RaRyrRIwAAAABJRU5ErkJggg==;rotation=85;" vertex="1" parent="1">
          <mxGeometry x="360" y="310" width="108" height="62" as="geometry" />
        </mxCell>
        <mxCell id="_0HD5gHIsMBidYTkMZf6-2" value="" style="endArrow=none;dashed=1;html=1;rounded=0;entryX=1;entryY=0.5;entryDx=0;entryDy=0;" edge="1" parent="1" target="_0HD5gHIsMBidYTkMZf6-1">
          <mxGeometry width="50" height="50" relative="1" as="geometry">
            <mxPoint x="450" y="680" as="sourcePoint" />
            <mxPoint x="440" y="480" as="targetPoint" />
          </mxGeometry>
        </mxCell>
        <mxCell id="_0HD5gHIsMBidYTkMZf6-4" value="&lt;b&gt;&lt;font style=&quot;font-size: 24px;&quot; face=&quot;Helvetica&quot;&gt;Lk = 40cm&lt;/font&gt;&lt;/b&gt;" style="edgeLabel;html=1;align=center;verticalAlign=middle;resizable=0;points=[];" vertex="1" connectable="0" parent="_0HD5gHIsMBidYTkMZf6-2">
          <mxGeometry x="0.1124" y="1" relative="1" as="geometry">
            <mxPoint x="78" as="offset" />
          </mxGeometry>
        </mxCell>
        <mxCell id="_0HD5gHIsMBidYTkMZf6-5" value="" style="endArrow=none;html=1;rounded=0;" edge="1" parent="1">
          <mxGeometry width="50" height="50" relative="1" as="geometry">
            <mxPoint x="370" y="680" as="sourcePoint" />
            <mxPoint x="540" y="680" as="targetPoint" />
          </mxGeometry>
        </mxCell>
        <mxCell id="_0HD5gHIsMBidYTkMZf6-7" value="&lt;font style=&quot;font-size: 24px;&quot;&gt;Kamera&lt;/font&gt;" style="text;html=1;align=center;verticalAlign=middle;whiteSpace=wrap;rounded=0;" vertex="1" parent="1">
          <mxGeometry x="400" y="260" width="60" height="30" as="geometry" />
        </mxCell>
        <mxCell id="_0HD5gHIsMBidYTkMZf6-8" value="&lt;font style=&quot;font-size: 24px;&quot;&gt;Taśmociąg&lt;/font&gt;" style="text;html=1;align=center;verticalAlign=middle;whiteSpace=wrap;rounded=0;" vertex="1" parent="1">
          <mxGeometry x="420" y="690" width="100" height="30" as="geometry" />
        </mxCell>
        <mxCell id="_0HD5gHIsMBidYTkMZf6-9" value="&lt;b&gt;&lt;span style=&quot;font-size:12.0pt;line-height:107%;font-family:&amp;quot;Segoe UI&amp;quot;,sans-serif;&lt;br/&gt;mso-fareast-font-family:&amp;quot;Times New Roman&amp;quot;;mso-ansi-language:PL;mso-fareast-language:&lt;br/&gt;EN-US;mso-bidi-language:AR-SA&quot; lang=&quot;PL&quot;&gt;α=85&lt;/span&gt;&lt;/b&gt;&lt;b&gt;&lt;span style=&quot;font-size:12.0pt;line-height:107%;font-family:&amp;quot;Segoe UI&amp;quot;,sans-serif;&lt;br/&gt;mso-fareast-font-family:&amp;quot;Times New Roman&amp;quot;;mso-ansi-language:PL;mso-fareast-language:&lt;br/&gt;EN-US;mso-bidi-language:AR-SA&quot; lang=&quot;PL&quot;&gt;°&lt;/span&gt;&lt;/b&gt;&lt;span style=&quot;font-size:12.0pt;&lt;br/&gt;line-height:107%;font-family:&amp;quot;Segoe UI&amp;quot;,sans-serif;mso-fareast-font-family:&lt;br/&gt;&amp;quot;Times New Roman&amp;quot;;mso-ansi-language:PL;mso-fareast-language:EN-US;mso-bidi-language:&lt;br/&gt;AR-SA&quot; lang=&quot;PL&quot;&gt;&lt;/span&gt;" style="text;html=1;align=center;verticalAlign=middle;whiteSpace=wrap;rounded=0;" vertex="1" parent="1">
          <mxGeometry x="384" y="620" width="60" height="30" as="geometry" />
        </mxCell>
        <mxCell id="_0HD5gHIsMBidYTkMZf6-11" value="" style="curved=1;endArrow=none;html=1;rounded=0;endFill=0;" edge="1" parent="1">
          <mxGeometry width="50" height="50" relative="1" as="geometry">
            <mxPoint x="370" y="680" as="sourcePoint" />
            <mxPoint x="440" y="610" as="targetPoint" />
            <Array as="points">
              <mxPoint x="380" y="630" />
              <mxPoint x="420" y="610" />
            </Array>
          </mxGeometry>
        </mxCell>
        <mxCell id="_0HD5gHIsMBidYTkMZf6-14" value="" style="endArrow=none;html=1;rounded=0;strokeWidth=10;" edge="1" parent="1">
          <mxGeometry width="50" height="50" relative="1" as="geometry">
            <mxPoint x="150" y="449" as="sourcePoint" />
            <mxPoint x="200" y="399" as="targetPoint" />
          </mxGeometry>
        </mxCell>
        <mxCell id="_0HD5gHIsMBidYTkMZf6-16" value="" style="endArrow=none;html=1;rounded=0;" edge="1" parent="1">
          <mxGeometry width="50" height="50" relative="1" as="geometry">
            <mxPoint x="180" y="497" as="sourcePoint" />
            <mxPoint x="170" y="457" as="targetPoint" />
          </mxGeometry>
        </mxCell>
        <mxCell id="_0HD5gHIsMBidYTkMZf6-17" value="" style="endArrow=none;html=1;rounded=0;" edge="1" parent="1">
          <mxGeometry width="50" height="50" relative="1" as="geometry">
            <mxPoint x="240" y="487" as="sourcePoint" />
            <mxPoint x="190" y="437" as="targetPoint" />
          </mxGeometry>
        </mxCell>
        <mxCell id="_0HD5gHIsMBidYTkMZf6-18" value="" style="endArrow=none;html=1;rounded=0;" edge="1" parent="1">
          <mxGeometry width="50" height="50" relative="1" as="geometry">
            <mxPoint x="250" y="427" as="sourcePoint" />
            <mxPoint x="210" y="417" as="targetPoint" />
          </mxGeometry>
        </mxCell>
        <mxCell id="_0HD5gHIsMBidYTkMZf6-19" value="" style="endArrow=none;html=1;rounded=0;" edge="1" parent="1">
          <mxGeometry width="50" height="50" relative="1" as="geometry">
            <mxPoint x="210" y="497" as="sourcePoint" />
            <mxPoint x="180" y="447" as="targetPoint" />
          </mxGeometry>
        </mxCell>
        <mxCell id="_0HD5gHIsMBidYTkMZf6-20" value="" style="endArrow=none;html=1;rounded=0;" edge="1" parent="1">
          <mxGeometry width="50" height="50" relative="1" as="geometry">
            <mxPoint x="250" y="457" as="sourcePoint" />
            <mxPoint x="200" y="427" as="targetPoint" />
          </mxGeometry>
        </mxCell>
        <mxCell id="_0HD5gHIsMBidYTkMZf6-21" value="&lt;b&gt;&lt;font style=&quot;font-size: 24px;&quot;&gt;Lampa&lt;/font&gt;&lt;/b&gt;" style="text;html=1;align=center;verticalAlign=middle;resizable=0;points=[];autosize=1;strokeColor=none;fillColor=none;" vertex="1" parent="1">
          <mxGeometry x="90" y="380" width="100" height="40" as="geometry" />
        </mxCell>
        <mxCell id="_0HD5gHIsMBidYTkMZf6-22" value="" style="endArrow=none;dashed=1;html=1;dashPattern=1 3;strokeWidth=2;rounded=0;" edge="1" parent="1">
          <mxGeometry width="50" height="50" relative="1" as="geometry">
            <mxPoint x="190" y="440" as="sourcePoint" />
            <mxPoint x="440" y="670" as="targetPoint" />
          </mxGeometry>
        </mxCell>
        <mxCell id="_0HD5gHIsMBidYTkMZf6-23" value="&lt;b&gt;&lt;font style=&quot;font-size: 24px;&quot;&gt;Ll = 50cm&lt;/font&gt;&lt;/b&gt;" style="edgeLabel;html=1;align=center;verticalAlign=middle;resizable=0;points=[];" vertex="1" connectable="0" parent="_0HD5gHIsMBidYTkMZf6-22">
          <mxGeometry x="-0.2426" y="3" relative="1" as="geometry">
            <mxPoint as="offset" />
          </mxGeometry>
        </mxCell>
        <mxCell id="_0HD5gHIsMBidYTkMZf6-24" value="" style="endArrow=none;html=1;rounded=0;" edge="1" parent="1">
          <mxGeometry width="50" height="50" relative="1" as="geometry">
            <mxPoint x="120" y="690" as="sourcePoint" />
            <mxPoint x="710" y="690" as="targetPoint" />
          </mxGeometry>
        </mxCell>
        <mxCell id="_0HD5gHIsMBidYTkMZf6-25" value="" style="curved=1;endArrow=none;html=1;rounded=0;endFill=0;" edge="1" parent="1">
          <mxGeometry width="50" height="50" relative="1" as="geometry">
            <mxPoint x="390" y="680" as="sourcePoint" />
            <mxPoint x="420" y="650" as="targetPoint" />
            <Array as="points">
              <mxPoint x="390" y="670" />
              <mxPoint x="400" y="650" />
            </Array>
          </mxGeometry>
        </mxCell>
        <mxCell id="_0HD5gHIsMBidYTkMZf6-26" value="&lt;font style=&quot;font-size: 11px;&quot;&gt;&lt;b&gt;β&lt;/b&gt;&lt;b&gt;&lt;span style=&quot;line-height: 107%; font-family: &amp;quot;Segoe UI&amp;quot;, sans-serif;&quot; lang=&quot;PL&quot;&gt;=40&lt;/span&gt;&lt;/b&gt;&lt;b&gt;&lt;span style=&quot;line-height: 107%; font-family: &amp;quot;Segoe UI&amp;quot;, sans-serif;&quot; lang=&quot;PL&quot;&gt;°&lt;/span&gt;&lt;/b&gt;&lt;/font&gt;&lt;span style=&quot;font-size:12.0pt;&lt;br/&gt;line-height:107%;font-family:&amp;quot;Segoe UI&amp;quot;,sans-serif;mso-fareast-font-family:&lt;br/&gt;&amp;quot;Times New Roman&amp;quot;;mso-ansi-language:PL;mso-fareast-language:EN-US;mso-bidi-language:&lt;br/&gt;AR-SA&quot; lang=&quot;PL&quot;&gt;&lt;/span&gt;" style="text;html=1;align=center;verticalAlign=middle;whiteSpace=wrap;rounded=0;" vertex="1" parent="1">
          <mxGeometry x="384" y="650" width="60" height="30" as="geometry" />
        </mxCell>
      </root>
    </mxGraphModel>
  </diagram>
</mxfile>
